<?xml version="1.0" encoding="UTF-8" standalone="no"?>
<!-- Created with Inkscape (http://www.inkscape.org/) -->

<svg
   xmlns:dc="http://purl.org/dc/elements/1.1/"
   xmlns:cc="http://creativecommons.org/ns#"
   xmlns:rdf="http://www.w3.org/1999/02/22-rdf-syntax-ns#"
   xmlns:svg="http://www.w3.org/2000/svg"
   xmlns="http://www.w3.org/2000/svg"
   xmlns:xlink="http://www.w3.org/1999/xlink"
   xmlns:sodipodi="http://sodipodi.sourceforge.net/DTD/sodipodi-0.dtd"
   xmlns:inkscape="http://www.inkscape.org/namespaces/inkscape"
   width="981.75818"
   height="422.5488"
   id="svg4641"
   version="1.1"
   inkscape:version="0.91 r13725"
   sodipodi:docname="sqd_mnp_schem.svg">
  <sodipodi:namedview
     id="base"
     pagecolor="#ffffff"
     bordercolor="#666666"
     borderopacity="1.0"
     inkscape:pageopacity="0.0"
     inkscape:pageshadow="2"
     inkscape:zoom="0.9899495"
     inkscape:cx="683.76388"
     inkscape:cy="193.40947"
     inkscape:document-units="px"
     inkscape:current-layer="layer1"
     showgrid="false"
     fit-margin-top="0"
     fit-margin-left="0"
     fit-margin-right="0"
     fit-margin-bottom="0"
     inkscape:window-width="1920"
     inkscape:window-height="1029"
     inkscape:window-x="0"
     inkscape:window-y="25"
     inkscape:window-maximized="1" />
  <defs
     id="defs4643">
    <inkscape:perspective
       id="perspective4911"
       inkscape:persp3d-origin="372.04724 : 350.78739 : 1"
       inkscape:vp_z="744.09448 : 526.18109 : 1"
       inkscape:vp_y="0 : 1000 : 0"
       inkscape:vp_x="0 : 526.18109 : 1"
       sodipodi:type="inkscape:persp3d" />
    <marker
       style="overflow:visible"
       id="TriangleInL"
       refX="0"
       refY="0"
       orient="auto"
       inkscape:stockid="TriangleInL">
      <path
         transform="scale(-0.8,-0.8)"
         style="fill-rule:evenodd;stroke:#000000;stroke-width:1pt"
         d="m 5.77,0 -8.65,5 0,-10 8.65,5 z"
         id="path4008"
         inkscape:connector-curvature="0" />
    </marker>
    <marker
       inkscape:stockid="TriangleOutL"
       orient="auto"
       refY="0"
       refX="0"
       id="TriangleOutL"
       style="overflow:visible">
      <path
         id="path4017"
         d="m 5.77,0 -8.65,5 0,-10 8.65,5 z"
         style="fill-rule:evenodd;stroke:#000000;stroke-width:1pt"
         transform="scale(0.8,0.8)"
         inkscape:connector-curvature="0" />
    </marker>
    <linearGradient
       inkscape:collect="always"
       xlink:href="#linearGradient7748"
       id="linearGradient6073"
       gradientUnits="userSpaceOnUse"
       x1="579.43756"
       y1="2011.9404"
       x2="581.38361"
       y2="1646.2261" />
    <linearGradient
       id="linearGradient7748"
       inkscape:collect="always">
      <stop
         id="stop7750"
         offset="0"
         style="stop-color:#f9f9f9;stop-opacity:1" />
      <stop
         id="stop7752"
         offset="1"
         style="stop-color:#ffffff;stop-opacity:1" />
    </linearGradient>
    <radialGradient
       inkscape:collect="always"
       xlink:href="#linearGradient3909"
       id="radialGradient6075"
       gradientUnits="userSpaceOnUse"
       gradientTransform="matrix(0.18733143,2.0981022,-1.8718454,0.16712954,3611.4016,831.71141)"
       cx="315.14789"
       cy="1792.5043"
       fx="315.14789"
       fy="1792.5043"
       r="102.04724" />
    <linearGradient
       inkscape:collect="always"
       id="linearGradient3909">
      <stop
         style="stop-color:#fffb55;stop-opacity:1"
         offset="0"
         id="stop3911" />
      <stop
         style="stop-color:#ff7f2a;stop-opacity:1"
         offset="1"
         id="stop3913" />
    </linearGradient>
    <marker
       inkscape:stockid="TriangleOutLM"
       orient="auto"
       refY="0"
       refX="0"
       id="TriangleOutLM"
       style="overflow:visible">
      <path
         id="path4710"
         d="m 5.77,0 -8.65,5 0,-10 8.65,5 z"
         style="fill:#ff0000;fill-rule:evenodd;stroke:#ff0000;stroke-width:1pt"
         transform="scale(0.8,0.8)"
         inkscape:connector-curvature="0" />
    </marker>
    <radialGradient
       inkscape:collect="always"
       xlink:href="#linearGradient4805"
       id="radialGradient6077"
       gradientUnits="userSpaceOnUse"
       gradientTransform="matrix(0.18733143,2.0981022,-1.8718454,0.16712954,3611.4016,831.71141)"
       cx="315.14789"
       cy="1792.5043"
       fx="315.14789"
       fy="1792.5043"
       r="102.04724" />
    <linearGradient
       id="linearGradient4805"
       inkscape:collect="always">
      <stop
         id="stop4807"
         offset="0"
         style="stop-color:#55ccff;stop-opacity:1" />
      <stop
         id="stop4809"
         offset="1"
         style="stop-color:#000a9a;stop-opacity:1" />
    </linearGradient>
    <marker
       style="overflow:visible"
       id="DotM"
       refX="0"
       refY="0"
       orient="auto"
       inkscape:stockid="DotM">
      <path
         transform="matrix(0.4,0,0,0.4,2.96,0.4)"
         style="fill-rule:evenodd;stroke:#000000;stroke-width:1pt"
         d="m -2.5,-1 c 0,2.76 -2.24,5 -5,5 -2.76,0 -5,-2.24 -5,-5 0,-2.76 2.24,-5 5,-5 2.76,0 5,2.24 5,5 z"
         id="path3939"
         inkscape:connector-curvature="0" />
    </marker>
    <marker
       style="overflow:visible"
       id="Arrow1Lstart"
       refX="0"
       refY="0"
       orient="auto"
       inkscape:stockid="Arrow1Lstart">
      <path
         transform="matrix(0.8,0,0,0.8,10,0)"
         style="fill-rule:evenodd;stroke:#000000;stroke-width:1pt"
         d="M 0,0 5,-5 -12.5,0 5,5 0,0 Z"
         id="path3875"
         inkscape:connector-curvature="0" />
    </marker>
    <marker
       style="overflow:visible"
       id="marker4683"
       refX="0"
       refY="0"
       orient="auto"
       inkscape:stockid="DotM">
      <path
         transform="matrix(0.4,0,0,0.4,2.96,0.4)"
         style="fill-rule:evenodd;stroke:#000000;stroke-width:1pt"
         d="m -2.5,-1 c 0,2.76 -2.24,5 -5,5 -2.76,0 -5,-2.24 -5,-5 0,-2.76 2.24,-5 5,-5 2.76,0 5,2.24 5,5 z"
         id="path4685"
         inkscape:connector-curvature="0" />
    </marker>
    <marker
       style="overflow:visible"
       id="marker4687"
       refX="0"
       refY="0"
       orient="auto"
       inkscape:stockid="TriangleInL">
      <path
         transform="scale(-0.8,-0.8)"
         style="fill-rule:evenodd;stroke:#000000;stroke-width:1pt"
         d="m 5.77,0 -8.65,5 0,-10 8.65,5 z"
         id="path4689"
         inkscape:connector-curvature="0" />
    </marker>
    <marker
       style="overflow:visible"
       id="marker4691"
       refX="0"
       refY="0"
       orient="auto"
       inkscape:stockid="DotM">
      <path
         transform="matrix(0.4,0,0,0.4,2.96,0.4)"
         style="fill-rule:evenodd;stroke:#000000;stroke-width:1pt"
         d="m -2.5,-1 c 0,2.76 -2.24,5 -5,5 -2.76,0 -5,-2.24 -5,-5 0,-2.76 2.24,-5 5,-5 2.76,0 5,2.24 5,5 z"
         id="path4693"
         inkscape:connector-curvature="0" />
    </marker>
    <marker
       style="overflow:visible"
       id="marker4695"
       refX="0"
       refY="0"
       orient="auto"
       inkscape:stockid="DotM">
      <path
         transform="matrix(0.4,0,0,0.4,2.96,0.4)"
         style="fill-rule:evenodd;stroke:#000000;stroke-width:1pt"
         d="m -2.5,-1 c 0,2.76 -2.24,5 -5,5 -2.76,0 -5,-2.24 -5,-5 0,-2.76 2.24,-5 5,-5 2.76,0 5,2.24 5,5 z"
         id="path4697"
         inkscape:connector-curvature="0" />
    </marker>
    <marker
       inkscape:stockid="TriangleOutL"
       orient="auto"
       refY="0"
       refX="0"
       id="marker4699"
       style="overflow:visible">
      <path
         id="path4701"
         d="m 5.77,0 -8.65,5 0,-10 8.65,5 z"
         style="fill-rule:evenodd;stroke:#000000;stroke-width:1pt"
         transform="scale(0.8,0.8)"
         inkscape:connector-curvature="0" />
    </marker>
    <linearGradient
       gradientTransform="matrix(1.1243371,0,0,1.1243371,-142.42983,-1526.6763)"
       y2="1646.2261"
       x2="581.38361"
       y1="2011.9404"
       x1="579.43756"
       gradientUnits="userSpaceOnUse"
       id="linearGradient4908"
       xlink:href="#linearGradient7748"
       inkscape:collect="always" />
    <radialGradient
       r="102.04724"
       fy="1792.5043"
       fx="315.14789"
       cy="1792.5043"
       cx="315.14789"
       gradientTransform="matrix(0.18733143,2.0981022,-1.8718454,0.16712954,3611.4016,831.71141)"
       gradientUnits="userSpaceOnUse"
       id="radialGradient4917"
       xlink:href="#linearGradient3909"
       inkscape:collect="always" />
    <radialGradient
       r="102.04724"
       fy="1792.5043"
       fx="315.14789"
       cy="1792.5043"
       cx="315.14789"
       gradientTransform="matrix(0.18733143,2.0981022,-1.8718454,0.16712954,3611.4016,831.71141)"
       gradientUnits="userSpaceOnUse"
       id="radialGradient4919"
       xlink:href="#linearGradient4805"
       inkscape:collect="always" />
  </defs>
  <metadata
     id="metadata4646">
    <rdf:RDF>
      <cc:Work
         rdf:about="">
        <dc:format>image/svg+xml</dc:format>
        <dc:type
           rdf:resource="http://purl.org/dc/dcmitype/StillImage" />
        <dc:title></dc:title>
      </cc:Work>
    </rdf:RDF>
  </metadata>
  <g
     transform="translate(3.6583641,-336.72329)"
     id="layer1"
     inkscape:groupmode="layer"
     inkscape:label="Layer 1">
    <circle
       r="102.04724"
       cy="1844.2914"
       cx="364.25198"
       style="fill:url(#radialGradient4917);fill-opacity:1"
       id="path3891"
       transform="matrix(2.0703588,0,0,2.0703588,-546.51626,-3270.3472)" />
    <circle
       r="102.04724"
       cy="1844.2914"
       cx="364.25198"
       transform="matrix(0.77970111,0,0,0.77970111,434.37867,-889.99829)"
       id="path4801"
       style="fill:url(#radialGradient4919);fill-opacity:1" />
    <path
       inkscape:connector-curvature="0"
       id="path4811"
       d="m 717.22966,546.92893 c -509.51835,0 -509.51835,0 -509.51835,0"
       style="fill:none;stroke:#000000;stroke-width:2.70903277;stroke-linecap:butt;stroke-linejoin:miter;stroke-miterlimit:4;stroke-dasharray:10.83613099, 10.83613099;stroke-dashoffset:0;stroke-opacity:1;marker-start:url(#DotM);marker-mid:url(#Arrow1Lstart);marker-end:url(#DotM)" />
    <path
       sodipodi:nodetypes="cc"
       style="fill:none;stroke:#000000;stroke-width:2.70903277;stroke-linecap:butt;stroke-linejoin:miter;stroke-miterlimit:4;stroke-dasharray:none;stroke-opacity:1;marker-start:url(#TriangleInL);marker-end:url(#DotM)"
       d="M 279.15306,365.47419 207.71131,546.92893"
       id="path5971"
       inkscape:connector-curvature="0" />
    <path
       sodipodi:nodetypes="cc"
       style="fill:none;stroke:#000000;stroke-width:2.70903277;stroke-linecap:butt;stroke-linejoin:miter;stroke-miterlimit:4;stroke-dasharray:none;stroke-opacity:1;marker-start:url(#DotM);marker-end:url(#TriangleOutL)"
       d="m 717.22966,546.92893 37.89941,-52.53465"
       id="path6359"
       inkscape:connector-curvature="0" />
    <text
       sodipodi:linespacing="125%"
       id="text4280"
       y="778.81079"
       x="576.65033"
       style="font-style:italic;font-variant:normal;font-weight:normal;font-stretch:normal;font-size:40px;line-height:125%;font-family:'Open Sans';-inkscape-font-specification:'Sans Italic';letter-spacing:0px;word-spacing:0px;fill:#000000;fill-opacity:1;stroke:none"
       xml:space="preserve"><tspan
         style="font-size:36px"
         y="778.81079"
         x="576.65033"
         id="tspan4282"
         sodipodi:role="line" /></text>
    <path
       inkscape:connector-curvature="0"
       id="path3410"
       d="m 815.57535,466.32785 107.07617,0"
       style="fill:none;fill-rule:evenodd;stroke:#000000;stroke-width:2;stroke-linecap:butt;stroke-linejoin:miter;stroke-miterlimit:4;stroke-dasharray:none;stroke-opacity:1" />
    <path
       style="fill:none;fill-rule:evenodd;stroke:#000000;stroke-width:2;stroke-linecap:butt;stroke-linejoin:miter;stroke-miterlimit:4;stroke-dasharray:none;stroke-opacity:1"
       d="m 815.57535,623.91165 107.07617,0"
       id="path4272"
       inkscape:connector-curvature="0" />
    <path
       sodipodi:nodetypes="cc"
       inkscape:connector-curvature="0"
       id="path4274"
       d="m 832.74794,475.41922 0,139.14852"
       style="fill:none;fill-rule:evenodd;stroke:#000000;stroke-width:1.5;stroke-linecap:butt;stroke-linejoin:miter;stroke-miterlimit:4;stroke-dasharray:none;stroke-opacity:1;marker-start:url(#TriangleInL);marker-end:url(#TriangleOutL)" />
    <g
       id="g4947"
       transform="translate(693.97479,257.58889)">
      <g
         word-spacing="normal"
         letter-spacing="normal"
         font-size-adjust="none"
         font-stretch="normal"
         font-weight="normal"
         font-variant="normal"
         font-style="normal"
         stroke-miterlimit="10.433"
         xml:space="preserve"
         transform="matrix(0.84533334,0,0,-0.84533334,-147.93333,723.84947)"
         id="content"
         style="font-style:normal;font-variant:normal;font-weight:normal;font-stretch:normal;letter-spacing:normal;word-spacing:normal;text-anchor:start;fill:none;fill-opacity:1;fill-rule:evenodd;stroke:#000000;stroke-linecap:butt;stroke-linejoin:miter;stroke-miterlimit:10.43299961;stroke-dasharray:none;stroke-dashoffset:0;stroke-opacity:1"><path
           id="path4950"
           d="m 464.39,443.29 0,0.18 -0.01,0.17 0,0.17 0,0.09 -0.01,0.08 -0.01,0.08 0,0.08 -0.02,0.08 -0.01,0.08 -0.01,0.07 -0.02,0.07 -0.02,0.07 -0.02,0.07 -0.03,0.07 -0.03,0.06 -0.03,0.06 -0.04,0.05 -0.04,0.05 -0.04,0.05 -0.05,0.05 -0.05,0.04 -0.06,0.03 -0.03,0.02 -0.03,0.02 -0.04,0.01 -0.03,0.01 -0.04,0.01 -0.03,0.02 -0.04,0.01 -0.04,0 -0.04,0.01 -0.05,0.01 -0.04,0 -0.04,0.01 -0.05,0 -0.05,0 c -1.03,0 -1.03,-0.94 -1.03,-1.88 l 0,-48.22 c 0,-0.93 0,-1.86 1.03,-1.86 1.05,0 1.05,0.93 1.05,1.86 z"
           inkscape:connector-curvature="0"
           style="fill:#000000;stroke-width:0" /><path
           id="path4952"
           d="m 474.46,433.86 0.5,0 6.42,2.89 c 0.05,0.04 0.1,0.04 0.14,0.04 0.32,0 0.41,-0.45 0.41,-1.64 l 0,-24.17 c 0,-2.59 -0.55,-3.14 -3.23,-3.28 l -2.8,-0.16 0,-1.5 c 7.67,0.16 7.67,0.16 8.22,0.16 0.65,0 1.75,0 3.43,-0.05 0.6,-0.04 2.35,-0.04 4.4,-0.11 l 0,1.5 -2.6,0.16 c -2.73,0.14 -3.23,0.69 -3.23,3.28 l 0,29.55 -0.71,0.25 c -3.23,-1.71 -6.78,-3.19 -11.31,-4.78 z"
           inkscape:connector-curvature="0"
           style="fill:#000000;stroke-width:0" /><path
           id="path4954"
           d="m 510.86,418.31 0.01,0.03 0.02,0.03 0.01,0.02 0.01,0.03 0.01,0.03 0.01,0.02 0.01,0.03 0.01,0.02 0,0.02 0.01,0.03 0.01,0.02 0.01,0.02 0.01,0.02 0,0.02 0.02,0.04 0.01,0.03 0.01,0.04 0.01,0.03 0.01,0.03 0.01,0.03 0.01,0.02 0.01,0.03 0,0.02 0.01,0.02 0,0.02 0.01,0.02 0,0.02 0,0.02 0.01,0.02 0,0.01 0,0.02 0,0.03 0,0.03 0,0.03 0,0.02 c 0,0.16 0,0.27 -0.25,0.89 l -9.09,23.91 c -0.31,0.88 -0.63,1.19 -1.2,1.19 -0.57,0 -1.03,-0.47 -1.03,-1.03 0,-0.16 0,-0.27 0.26,-0.85 l 9.19,-24.11 -9.19,-24 c -0.26,-0.57 -0.26,-0.67 -0.26,-0.93 0,-0.57 0.46,-1.04 1.03,-1.04 0.68,0 0.89,0.52 1.09,1.04 z"
           inkscape:connector-curvature="0"
           style="fill:#000000;stroke-width:0" /></g>    </g>
    <g
       transform="translate(691.95449,96.974644)"
       id="g5111">
      <g
         style="font-style:normal;font-variant:normal;font-weight:normal;font-stretch:normal;letter-spacing:normal;word-spacing:normal;text-anchor:start;fill:none;fill-opacity:1;fill-rule:evenodd;stroke:#000000;stroke-linecap:butt;stroke-linejoin:miter;stroke-miterlimit:10.43299961;stroke-dasharray:none;stroke-dashoffset:0;stroke-opacity:1"
         id="g5113"
         transform="matrix(0.84533334,0,0,-0.84533334,-147.93333,723.84947)"
         xml:space="preserve"
         stroke-miterlimit="10.433"
         font-style="normal"
         font-variant="normal"
         font-weight="normal"
         font-stretch="normal"
         font-size-adjust="none"
         letter-spacing="normal"
         word-spacing="normal"><path
           style="fill:#000000;stroke-width:0"
           inkscape:connector-curvature="0"
           d="m 464.39,443.29 0,0.18 -0.01,0.17 0,0.17 0,0.09 -0.01,0.08 -0.01,0.08 0,0.08 -0.02,0.08 -0.01,0.08 -0.01,0.07 -0.02,0.07 -0.02,0.07 -0.02,0.07 -0.03,0.07 -0.03,0.06 -0.03,0.06 -0.04,0.05 -0.04,0.05 -0.04,0.05 -0.05,0.05 -0.05,0.04 -0.06,0.03 -0.03,0.02 -0.03,0.02 -0.04,0.01 -0.03,0.01 -0.04,0.01 -0.03,0.02 -0.04,0.01 -0.04,0 -0.04,0.01 -0.05,0.01 -0.04,0 -0.04,0.01 -0.05,0 -0.05,0 c -1.03,0 -1.03,-0.94 -1.03,-1.88 l 0,-48.22 c 0,-0.93 0,-1.86 1.03,-1.86 1.05,0 1.05,0.93 1.05,1.86 z"
           id="path5115" /><path
           style="fill:#000000;stroke-width:0"
           inkscape:connector-curvature="0"
           d="m 471.91,407.34 0,-1.3 c 9.32,0.16 9.32,0.16 11.11,0.16 1.8,0 1.8,0 11.41,-0.16 -0.09,1.05 -0.09,1.55 -0.09,2.25 0,0.64 0,1.14 0.09,2.24 -5.72,-0.25 -8.02,-0.3 -17.23,-0.49 l 9.06,9.61 c 4.84,5.13 6.33,7.88 6.33,11.61 0,5.74 -3.88,9.27 -10.21,9.27 -3.59,0 -6.03,-1 -8.47,-3.49 l -0.86,-6.78 1.46,0 0.64,2.3 c 0.8,2.89 2.59,4.12 5.94,4.12 4.28,0 7.01,-2.68 7.01,-6.92 0,-3.73 -2.09,-7.42 -7.72,-13.4 z"
           id="path5117" /><path
           style="fill:#000000;stroke-width:0"
           inkscape:connector-curvature="0"
           d="m 510.86,418.31 0.01,0.03 0.02,0.03 0.01,0.02 0.01,0.03 0.01,0.03 0.01,0.02 0.01,0.03 0.01,0.02 0,0.02 0.01,0.03 0.01,0.02 0.01,0.02 0.01,0.02 0,0.02 0.02,0.04 0.01,0.03 0.01,0.04 0.01,0.03 0.01,0.03 0.01,0.03 0.01,0.02 0.01,0.03 0,0.02 0.01,0.02 0,0.02 0.01,0.02 0,0.02 0,0.02 0.01,0.02 0,0.01 0,0.02 0,0.03 0,0.03 0,0.03 0,0.02 c 0,0.16 0,0.27 -0.25,0.89 l -9.09,23.91 c -0.31,0.88 -0.63,1.19 -1.2,1.19 -0.57,0 -1.03,-0.47 -1.03,-1.03 0,-0.16 0,-0.27 0.26,-0.85 l 9.19,-24.11 -9.19,-24 c -0.26,-0.57 -0.26,-0.67 -0.26,-0.93 0,-0.57 0.46,-1.04 1.03,-1.04 0.68,0 0.89,0.52 1.09,1.04 z"
           id="path5119" /></g>    </g>
    <g
       id="g5276"
       transform="matrix(1.4507408,0,0,1.4507408,-205.17509,137.61303)">
      <g
         word-spacing="normal"
         letter-spacing="normal"
         font-size-adjust="none"
         font-stretch="normal"
         font-weight="normal"
         font-variant="normal"
         font-style="normal"
         stroke-miterlimit="10.433"
         xml:space="preserve"
         transform="matrix(0.84533334,0,0,-0.84533334,-147.93333,723.84947)"
         id="g5278"
         style="font-style:normal;font-variant:normal;font-weight:normal;font-stretch:normal;letter-spacing:normal;word-spacing:normal;text-anchor:start;fill:none;fill-opacity:1;fill-rule:evenodd;stroke:#000000;stroke-linecap:butt;stroke-linejoin:miter;stroke-miterlimit:10.43299961;stroke-dasharray:none;stroke-dashoffset:0;stroke-opacity:1"><path
           id="path5280"
           d="m 491.99,412.18 0,-0.18 0,-0.17 0,-0.18 0,-0.16 -0.01,-0.17 0,-0.15 0,-0.15 -0.01,-0.15 0,-0.14 0,-0.14 -0.01,-0.14 -0.01,-0.13 0,-0.12 -0.01,-0.12 -0.01,-0.12 -0.01,-0.11 -0.01,-0.11 -0.01,-0.11 -0.02,-0.1 -0.01,-0.09 -0.02,-0.1 -0.01,-0.09 -0.04,-0.17 -0.04,-0.15 -0.05,-0.14 -0.06,-0.14 -0.06,-0.11 -0.06,-0.11 -0.08,-0.1 -0.08,-0.09 -0.09,-0.08 -0.1,-0.07 -0.11,-0.06 -0.12,-0.06 -0.12,-0.04 -0.14,-0.05 -0.14,-0.03 -0.16,-0.04 -0.17,-0.03 -0.17,-0.02 -0.19,-0.02 -0.21,-0.02 -0.21,-0.02 -1.69,-0.16 0,-1.5 c 2.3,0.11 3.79,0.16 6.38,0.16 2.8,0 4.58,-0.05 7.53,-0.16 l 0,1.5 -2.39,0.16 c -2.3,0.14 -2.55,0.55 -2.55,4.48 l 0,22.36 c 0,3.89 0.25,4.35 2.55,4.49 l 2.08,0.15 0,1.49 c -3.78,-0.14 -3.78,-0.14 -4.63,-0.14 -0.75,0 -0.75,0 -4.73,0.14 l -13.05,-27.69 -13.15,27.69 c -3.99,-0.14 -3.99,-0.14 -4.74,-0.14 -0.75,0 -0.75,0 -4.73,0.14 l 0,-1.49 2.18,-0.15 c 2.3,-0.14 2.55,-0.6 2.55,-4.49 l 0,-22.36 c 0,-3.89 -0.25,-4.34 -2.55,-4.48 l -2.18,-0.16 0,-1.5 c 4.93,0.16 4.93,0.16 5.78,0.16 0.75,0 0.75,0 5.98,-0.16 l 0,1.5 -2.2,0.16 c -2.28,0.14 -2.53,0.59 -2.53,4.48 l 0,22.82 13.89,-29.44 1,0 c 0.34,0.73 0.64,1.53 0.95,2.28 0.8,1.95 1.39,3.34 1.74,4.03 l 8.87,18.84 c 0.69,1.44 1.3,2.6 2.19,4.29 z"
           inkscape:connector-curvature="0"
           style="fill:#000000;stroke-width:0" /><path
           id="path5282"
           d="m 509.5,440.53 -0.25,0 -0.24,0.01 -0.23,0 -0.22,0 -0.21,0.01 -0.2,0 -0.19,0 -0.18,0.01 -0.18,0 -0.17,0 -0.16,0 -0.16,0.01 -0.31,0 -0.31,0.01 -0.3,0.01 -0.31,0 -0.15,0.01 -0.17,0 -0.16,0.01 -0.18,0 -0.18,0.01 -0.19,0 -0.19,0.01 -0.21,0.01 -0.21,0 -0.23,0.01 -0.24,0.01 -0.25,0.01 0,-1.49 2.2,-0.15 c 2.28,-0.14 2.53,-0.6 2.53,-4.49 l 0,-22.36 c 0,-3.89 -0.25,-4.34 -2.53,-4.48 l -2.2,-0.16 0,-1.5 c 4.94,0.16 4.94,0.16 5.78,0.16 0.75,0 0.75,0 5.98,-0.16 l 0,1.5 -2.2,0.16 c -2.28,0.14 -2.53,0.59 -2.53,4.48 l 0,23.07 23.56,-29.25 4.49,-0.8 c 0,0.2 0,0.25 -0.05,0.59 -0.05,0.57 -0.11,0.96 -0.11,1.25 l 0,27.5 c 0,3.89 0.25,4.35 2.55,4.49 l 2.19,0.15 0,1.49 c -5.22,-0.14 -5.22,-0.14 -5.97,-0.14 -0.86,0 -0.86,0 -5.78,0.14 l 0,-1.49 2.18,-0.15 c 2.3,-0.14 2.55,-0.6 2.55,-4.49 l 0,-23.47 -23.97,29.6 z"
           inkscape:connector-curvature="0"
           style="fill:#000000;stroke-width:0" /><path
           id="path5284"
           d="m 554.84,438.18 0.32,0.08 0.32,0.07 0.31,0.06 0.31,0.06 0.3,0.05 0.3,0.05 0.3,0.04 0.29,0.04 0.3,0.04 0.3,0.03 0.3,0.02 0.29,0.02 0.31,0.02 0.3,0.01 0.31,0 0.32,0.01 c 5.38,0 8.28,-2.49 8.28,-7.22 0,-4.49 -3.05,-7.63 -7.38,-7.63 -1.05,0 -1.8,0.11 -3.09,0.5 l 0.5,-1.79 c 1.19,-0.25 1.89,-0.3 2.89,-0.3 6.83,0 12.05,4.64 12.05,10.61 0,4.78 -3.88,7.72 -10.21,7.72 -0.25,0 -0.75,0 -1.41,-0.05 -1.84,-0.05 -5.62,-0.09 -7.06,-0.09 -1.09,0 -1.09,0 -9.07,0.14 l 0,-1.49 2.25,-0.15 c 2.23,-0.14 2.63,-0.8 2.63,-4.49 l 0,-22.36 c 0,-3.93 -0.25,-4.34 -2.54,-4.48 l -2.39,-0.16 0,-1.5 c 2.93,0.11 4.68,0.16 7.28,0.16 2.58,0 4.37,-0.05 7.31,-0.16 l 0,1.5 -2.39,0.16 c -2.28,0.14 -2.53,0.55 -2.53,4.48 z"
           inkscape:connector-curvature="0"
           style="fill:#000000;stroke-width:0" /></g>    </g>
    <g
       transform="matrix(1.22369,0,0,1.22369,381.09443,214.51642)"
       id="g5444">
      <g
         style="font-style:normal;font-variant:normal;font-weight:normal;font-stretch:normal;letter-spacing:normal;word-spacing:normal;text-anchor:start;fill:none;fill-opacity:1;fill-rule:evenodd;stroke:#000000;stroke-linecap:butt;stroke-linejoin:miter;stroke-miterlimit:10.43299961;stroke-dasharray:none;stroke-dashoffset:0;stroke-opacity:1"
         id="g5446"
         transform="matrix(0.84533334,0,0,-0.84533334,-147.93333,723.84947)"
         xml:space="preserve"
         stroke-miterlimit="10.433"
         font-style="normal"
         font-variant="normal"
         font-weight="normal"
         font-stretch="normal"
         font-size-adjust="none"
         letter-spacing="normal"
         word-spacing="normal"><path
           style="fill:#000000;stroke-width:0"
           inkscape:connector-curvature="0"
           d="m 477.79,432.4 0,0.25 0,0.24 0,0.46 0.02,0.45 0.01,0.44 0.03,0.42 0.03,0.42 0.03,0.41 0.04,0.41 0.04,0.41 0.06,0.41 0.05,0.42 0.07,0.43 0.07,0.44 0.07,0.46 0.05,0.23 0.04,0.24 0.04,0.24 0.05,0.25 c -3.99,1.6 -6.24,2.1 -8.97,2.1 -7.42,0 -12.8,-4.69 -12.8,-11.22 0,-2.44 0.64,-4.24 2.08,-5.58 1.7,-1.55 4,-2.34 8.83,-2.98 3.83,-0.55 5.58,-1.1 6.87,-2.25 1.3,-1.05 1.89,-2.49 1.89,-4.38 0,-4.48 -3.73,-7.72 -8.92,-7.72 -3.98,0 -7.87,1.94 -8.11,3.99 l -0.4,3.32 -1.6,0 c 0.05,-0.89 0.05,-1.68 0.05,-1.98 0,-2.3 -0.09,-3.39 -0.39,-5.64 2.83,-1.23 5.72,-1.89 8.61,-1.89 8.67,0 14.95,5.23 14.95,12.45 0,2.35 -0.65,3.99 -2.04,5.28 -1.74,1.66 -3.83,2.3 -9.43,3.05 -6.07,0.8 -8.22,2.44 -8.22,6.28 0,4.17 3.15,7.17 7.54,7.17 1.93,0 3.78,-0.4 5.12,-1.15 1.64,-0.85 2.2,-1.6 2.34,-3.03 l 0.3,-2.85 z"
           id="path5448" /><path
           style="fill:#000000;stroke-width:0"
           inkscape:connector-curvature="0"
           d="m 501,405.25 -0.79,-0.3 c -0.94,-0.3 -2.64,-1.44 -5.42,-3.58 l -0.11,-1.59 2.93,1.59 c 0.61,0.3 0.91,0.39 1.41,0.39 0.94,0 2.33,-0.25 3.87,-0.75 l 7.38,-2.28 c 1.75,-0.55 3.3,-0.91 5.28,-1.3 l 4.19,2.78 0,1.05 c -1.94,-0.25 -2.49,-0.3 -2.94,-0.3 -2.39,0 -5.12,0.75 -9.12,2.44 -3.08,1.36 -3.93,1.6 -6.02,1.85 l 0.55,2.09 c -4.24,0 -7.63,1.59 -10.13,4.69 -2.48,3.14 -3.98,7.92 -3.98,12.86 0,9.36 4.53,14.54 12.76,14.54 l 0,0 c 8.57,0 13.55,-6.07 13.55,-16.54 0,-9.97 -4.39,-15.55 -12.2,-15.55 l -0.55,-2.09 c 3.94,0.36 5.77,0.9 8.36,2.34 6.03,3.48 9.72,9.92 9.72,17.09 0,10.32 -7.08,16.85 -18.24,16.85 -11.15,0 -18.73,-7.38 -18.73,-18.24 0,-10.92 6.98,-18.04 17.69,-18.04 z"
           id="path5450" /><path
           style="fill:#000000;stroke-width:0"
           inkscape:connector-curvature="0"
           d="m 523.64,407.2 0,-1.16 c 5.78,0.16 5.78,0.16 6.92,0.16 0.89,0 1.69,0 2.59,-0.05 3.94,-0.11 3.94,-0.11 4.63,-0.11 6.37,0 11.17,1.66 14.65,5.1 3.58,3.53 5.79,8.9 5.79,14.25 0,9.26 -6.88,15.28 -17.4,15.28 -0.35,0 -1,0 -1.89,-0.05 -2.5,-0.05 -4.64,-0.09 -6.78,-0.09 l -1,-2.25 c 1.3,0.25 3.05,0.4 5.53,0.4 3.64,0 7.63,-0.65 9.72,-1.59 1.1,-0.45 2.05,-1.14 2.94,-2.05 2.39,-2.39 3.53,-5.97 3.53,-10.95 0,-5.58 -1.69,-9.88 -4.97,-12.56 -3,-2.44 -5.98,-3.28 -11.61,-3.28 -2.29,0 -3.84,0.09 -5.14,0.39 l 0,29.64 1,2.25 c -1.84,0 -4.58,0.04 -10.26,0.14 l 0,-1.49 2,-0.15 c 2.28,-0.14 2.53,-0.6 2.53,-4.49 l 0,-23.61 c 0,-1.45 -0.44,-2.54 -1.24,-2.93 z"
           id="path5452" /></g>    </g>
    <g
       id="g5618"
       transform="translate(473.76154,141.42136)">
      <g
         word-spacing="normal"
         letter-spacing="normal"
         font-size-adjust="none"
         font-stretch="normal"
         font-weight="normal"
         font-variant="normal"
         font-style="normal"
         stroke-miterlimit="10.433"
         xml:space="preserve"
         transform="matrix(0.84533334,0,0,-0.84533334,-147.93333,723.84947)"
         id="g5620"
         style="font-style:normal;font-variant:normal;font-weight:normal;font-stretch:normal;letter-spacing:normal;word-spacing:normal;text-anchor:start;fill:none;fill-opacity:1;fill-rule:evenodd;stroke:#000000;stroke-linecap:butt;stroke-linejoin:miter;stroke-miterlimit:10.43299961;stroke-dasharray:none;stroke-dashoffset:0;stroke-opacity:1"><path
           id="path5622"
           d="m 473.97,424.39 0.03,0.35 0.03,0.34 0.04,0.34 0.03,0.34 0.09,0.67 0.09,0.66 0.05,0.34 0.05,0.34 0.06,0.34 0.06,0.35 0.06,0.35 0.07,0.36 0.06,0.37 0.08,0.38 c -0.55,0.25 -0.74,0.29 -0.99,0.29 -1.55,0 -3.09,-1.2 -4.89,-3.73 l -1.34,-1.95 c -1.94,-2.78 -2.55,-3.83 -3.35,-5.58 l 0.41,2.05 c 0.2,1.14 0.59,3.14 0.89,4.23 l 0.3,1.3 c 0.2,0.84 0.31,1.5 0.31,2.09 0,1 -0.41,1.59 -1.16,1.59 -1.04,0 -2.93,-1.04 -6.62,-3.68 l -1.39,-1 0.34,-1 1.6,1.04 c 1.4,0.91 1.95,1.16 2.39,1.16 0.5,0 0.85,-0.45 0.85,-1.09 0,-2.89 -2.15,-13.16 -4.14,-19.53 l 0.5,-0.36 c 0.75,0.25 1.55,0.4 2.69,0.65 l 0.64,0.1 1.3,5.98 c 0.91,4.13 2.05,6.77 4.23,9.61 1.71,2.19 3.05,3.23 4.14,3.23 0.75,0 1.25,-0.25 1.8,-0.93 z"
           inkscape:connector-curvature="0"
           style="fill:#000000;stroke-width:0" /></g>    </g>
    <g
       transform="matrix(1.437898,0,0,1.437898,-137.07099,-91.051415)"
       id="g5789">
      <g
         style="font-style:normal;font-variant:normal;font-weight:normal;font-stretch:normal;letter-spacing:normal;word-spacing:normal;text-anchor:start;fill:none;fill-opacity:1;fill-rule:evenodd;stroke:#000000;stroke-linecap:butt;stroke-linejoin:miter;stroke-miterlimit:10.43299961;stroke-dasharray:none;stroke-dashoffset:0;stroke-opacity:1"
         id="g5791"
         transform="matrix(0.84533334,0,0,-0.84533334,-147.93333,723.84947)"
         xml:space="preserve"
         stroke-miterlimit="10.433"
         font-style="normal"
         font-variant="normal"
         font-weight="normal"
         font-stretch="normal"
         font-size-adjust="none"
         letter-spacing="normal"
         word-spacing="normal"><path
           style="fill:#000000;stroke-width:0"
           inkscape:connector-curvature="0"
           d="m 476.87,429.71 -0.5,0.46 -1.64,-0.91 c -2.05,0.75 -2.89,0.95 -4.23,0.95 -1.41,0 -2.39,-0.25 -3.74,-0.9 -3.09,-1.53 -4.73,-3.03 -5.98,-5.47 -2.19,-4.44 -3.74,-10.42 -3.74,-14.3 0,-2.2 0.75,-3.89 1.69,-3.89 1.09,0 2.98,1.1 4.89,2.78 2.09,1.91 4.03,4.14 6.72,7.93 L 469,416.21 c -2.85,-4.18 -5.88,-7.07 -7.47,-7.07 -0.61,0 -0.91,0.65 -0.91,2 0,3.18 1.41,9.01 3.14,13 1.2,2.73 2.35,3.64 4.74,3.64 1.14,0 2.04,-0.21 4.23,-0.96 l 0,0 c -1.09,-5.42 -2.05,-8.01 -3.73,-10.61 l 1.34,0.15 -1.44,-6.32 c -0.2,-0.86 -0.29,-1.75 -0.29,-2.54 0,-1.1 0.43,-1.75 1.18,-1.75 1.14,0 3.19,1.29 7.28,4.68 l -0.36,1.05 c -0.29,-0.25 -0.43,-0.34 -0.64,-0.55 -1.59,-1.34 -2.34,-1.79 -3.09,-1.79 -0.45,0 -0.75,0.45 -0.75,1.14 0,0.25 0,0.4 0.05,0.56 z"
           id="path5793" /></g>    </g>
    <g
       id="g5959"
       transform="matrix(1.7616157,0,0,1.7616157,80.741446,-58.479403)">
      <g
         word-spacing="normal"
         letter-spacing="normal"
         font-size-adjust="none"
         font-stretch="normal"
         font-weight="normal"
         font-variant="normal"
         font-style="normal"
         stroke-miterlimit="10.433"
         xml:space="preserve"
         transform="matrix(0.84533334,0,0,-0.84533334,-147.93333,723.84947)"
         id="g5961"
         style="font-style:normal;font-variant:normal;font-weight:normal;font-stretch:normal;letter-spacing:normal;word-spacing:normal;text-anchor:start;fill:none;fill-opacity:1;fill-rule:evenodd;stroke:#000000;stroke-linecap:butt;stroke-linejoin:miter;stroke-miterlimit:10.43299961;stroke-dasharray:none;stroke-dashoffset:0;stroke-opacity:1"><path
           id="path5963"
           d="m 462.31,439.28 2.78,-0.1 c 1.21,-0.04 1.75,-0.45 1.75,-1.34 0,-0.7 -0.2,-2.3 -0.45,-3.8 l -3.73,-21.61 c -0.8,-4.54 -0.89,-4.64 -2.89,-4.84 l -2.05,-0.14 -0.19,-1.41 2.09,0.07 c 2.33,0.09 3.29,0.09 4.49,0.09 l 4.83,-0.16 1.29,0 0.15,1.41 -2.44,0.14 c -1.35,0.11 -1.8,0.5 -1.8,1.5 0,0.45 0.06,0.89 0.2,1.75 l 4.24,24.25 c 0,0.11 0.25,1.11 0.45,2 0.09,0.39 0.2,0.75 0.35,1.39 1.45,0.3 2.43,0.41 3.78,0.41 4.34,0 6.64,-1.96 6.64,-5.64 0,-4.74 -3.89,-8.22 -9.08,-8.22 l -2.19,0 -0.15,-0.55 c 6.68,-9.72 8.21,-12.11 11.96,-18.44 l 3.28,0.16 0.41,0 0.55,0 c 0.04,0 0.73,-0.05 1.69,-0.16 l 0.64,0 0,1.36 c -1.99,0.24 -2.53,0.64 -3.99,2.74 l -9.15,13.7 c 2.73,0.5 4.18,1.09 5.96,2.39 2.89,2.09 4.44,4.83 4.44,7.88 0,4.28 -3.19,6.67 -8.72,6.56 l -7.47,-0.14 c -0.75,0 -1.64,0 -7.53,0.14 z"
           inkscape:connector-curvature="0"
           style="fill:#000000;stroke-width:0" /></g>    </g>
    <g
       id="g6358"
       transform="matrix(1.3523888,0,0,1.3523888,617.85612,-109.74036)">
      <g
         word-spacing="normal"
         letter-spacing="normal"
         font-size-adjust="none"
         font-stretch="normal"
         font-weight="normal"
         font-variant="normal"
         font-style="normal"
         stroke-miterlimit="10.433"
         xml:space="preserve"
         transform="matrix(0.60364114,0,0,-0.60364114,-105.6372,736.31863)"
         id="g6360"
         style="font-style:normal;font-variant:normal;font-weight:normal;font-stretch:normal;letter-spacing:normal;word-spacing:normal;text-anchor:start;fill:none;fill-opacity:1;fill-rule:evenodd;stroke:#000000;stroke-linecap:butt;stroke-linejoin:miter;stroke-miterlimit:10.43299961;stroke-dasharray:none;stroke-dashoffset:0;stroke-opacity:1"><polygon
           id="polygon6362"
           points="458.35,433 473.89,433 473.89,435.64 458.35,435.64 "
           style="fill:#000000;stroke-width:0" /><path
           id="path6364"
           d="m 468.12,442.17 -0.6,0.54 c -2.6,-1.29 -4.38,-1.73 -7.97,-2.09 l -0.21,-1.05 2.39,0 c 1.21,0 1.71,-0.34 1.71,-1.18 0,-0.41 -0.05,-0.85 -0.11,-1.21 l -2.1,-11.65 c -1.39,-7.52 -3.32,-16.1 -4.37,-19.24 l 0.34,-0.54 3.44,0.79 c 0.8,5.74 1.64,8.78 3.09,11.42 2.19,4.04 7.38,8.86 9.47,8.86 0.64,0 1.1,-0.45 1.1,-1.09 0,-0.89 -0.35,-2.8 -0.75,-4.44 L 471,411.53 c -0.44,-1.8 -0.64,-2.89 -0.64,-3.83 0,-1.2 0.55,-1.95 1.5,-1.95 1.3,0 3.08,1.04 7.97,4.68 l -0.5,0.89 -1.3,-0.84 C 476.59,409.54 475.48,409 475,409 c -0.36,0 -0.66,0.43 -0.66,0.98 0,0.5 0.05,0.91 0.35,2 l 3.19,12.75 c 0.31,1.3 0.56,2.84 0.56,3.69 0,1.09 -0.56,1.79 -1.46,1.79 -1.68,0 -4.73,-1.64 -7.87,-4.28 -1.73,-1.45 -2.59,-2.34 -4.88,-5.28 l -1,-1.25 z"
           inkscape:connector-curvature="0"
           style="fill:#000000;stroke-width:0" /><path
           id="path6366"
           d="m 493.72,430.21 -0.12,-0.09 -0.13,-0.09 -0.14,-0.1 -0.13,-0.1 -0.15,-0.11 -0.14,-0.11 -0.3,-0.22 -0.32,-0.24 -0.32,-0.24 -0.33,-0.25 -0.33,-0.25 -0.33,-0.25 -0.33,-0.26 -0.32,-0.26 -0.32,-0.25 -0.3,-0.25 -0.29,-0.24 -0.14,-0.12 -0.14,-0.12 -0.12,-0.11 -0.13,-0.12 c -3.64,-3.34 -5.62,-7.67 -5.62,-11.47 0,-2.89 0.14,-5.37 1.79,-7.32 1.1,-1.28 2.24,-1.99 4.08,-1.99 1.45,0 3.34,0.8 4.74,1.6 1.93,1.09 2.93,2.09 4.68,3.53 0.5,-3.08 2.53,-5.13 5.38,-5.13 2.18,0 4.23,1 6.62,3.24 2.14,2.04 4.35,5.18 5.78,8.32 1.25,2.65 2.1,6.02 2.1,8.11 0,2.89 -1.25,4.89 -3.1,4.89 -0.68,0 -1.18,-0.2 -1.64,-0.59 l -2.48,-2.34 0.55,-0.96 c 0.43,0.3 0.84,0.46 1.34,0.46 1.39,0 2.09,-1.14 2.09,-3.14 0,-7.43 -4.78,-15.5 -9.17,-15.5 -2.44,0 -3.98,2.04 -3.98,5.34 0,0.73 0,1.39 0.29,2.69 l 0.96,3.83 c 0.18,0.84 0.5,1.54 0.79,2.39 l -0.54,0.7 -3.25,-1.3 -1.35,-6.08 c -0.59,-1.68 -1.09,-3.78 -2.53,-5.03 -1.4,-1.2 -2.84,-2 -4.54,-2 -1.44,0 -2.69,0.66 -3.49,1.66 -1.05,1.14 -1.34,2.94 -1.34,4.42 0,4.6 1.2,8.63 5.48,12.66 0.55,0.5 1.5,1.34 1.99,1.89 z"
           inkscape:connector-curvature="0"
           style="fill:#000000;stroke-width:0" /><path
           id="path6368"
           d="m 529.93,423.55 -0.54,-0.01 -0.53,-0.04 -0.51,-0.07 -0.49,-0.1 -0.47,-0.12 -0.46,-0.15 -0.44,-0.18 -0.43,-0.2 -0.4,-0.23 -0.39,-0.26 -0.37,-0.28 -0.36,-0.32 -0.34,-0.33 -0.32,-0.37 -0.3,-0.39 -0.29,-0.42 -0.27,-0.45 -0.25,-0.47 -0.24,-0.5 -0.22,-0.53 -0.2,-0.55 -0.18,-0.59 -0.17,-0.6 -0.14,-0.64 -0.14,-0.66 -0.11,-0.68 -0.1,-0.72 -0.07,-0.74 -0.07,-0.77 -0.04,-0.79 -0.03,-0.82 -0.01,-0.85 c 0,-4.43 0.8,-8.26 2.13,-10.12 1.33,-1.86 3.45,-2.92 5.8,-2.92 l 0.5,1.32 c -3.68,0 -5.24,3.83 -5.24,13.08 0,8 1.41,11.14 5,11.14 l 0,0 c 3.69,0 5.16,-3.7 5.16,-12.79 0,-8.08 -1.44,-11.43 -4.92,-11.43 l -0.5,-1.32 c 5.73,0 8.61,4.93 8.61,14.64 0,8.29 -2.47,12.23 -7.66,12.23 z"
           inkscape:connector-curvature="0"
           style="fill:#000000;stroke-width:0" /></g>    </g>
  </g>
</svg>
